<mxfile host="65bd71144e">
    <diagram id="TUBE9LNubIQy5jUnSFzf" name="第 1 页">
        <mxGraphModel dx="959" dy="364" grid="1" gridSize="10" guides="1" tooltips="1" connect="1" arrows="1" fold="1" page="1" pageScale="1" pageWidth="827" pageHeight="1169" background="#ffffff" math="0" shadow="0">
            <root>
                <mxCell id="0"/>
                <mxCell id="1" parent="0"/>
                <mxCell id="2" value="客户端" style="rounded=0;whiteSpace=wrap;html=1;fillColor=#647687;fontColor=#ffffff;strokeColor=#314354;fontSize=16;" vertex="1" parent="1">
                    <mxGeometry x="50" y="87" width="110" height="43" as="geometry"/>
                </mxCell>
                <mxCell id="4" value="" style="endArrow=classic;html=1;exitX=1;exitY=0.5;exitDx=0;exitDy=0;strokeWidth=3;strokeColor=#000000;fontSize=16;" edge="1" parent="1" source="2">
                    <mxGeometry width="50" height="50" relative="1" as="geometry">
                        <mxPoint x="460" y="247" as="sourcePoint"/>
                        <mxPoint x="800" y="107" as="targetPoint"/>
                    </mxGeometry>
                </mxCell>
                <mxCell id="5" value="构建请求" style="rounded=0;whiteSpace=wrap;html=1;fillColor=none;fontColor=#000000;strokeColor=#333333;fontSize=13;" vertex="1" parent="1">
                    <mxGeometry x="170" y="77" width="70" height="30" as="geometry"/>
                </mxCell>
                <mxCell id="6" value="通过DNS查询IP地址" style="rounded=0;whiteSpace=wrap;html=1;fillColor=none;fontColor=#000000;strokeColor=#333333;fontSize=13;" vertex="1" parent="1">
                    <mxGeometry x="250" y="67" width="70" height="40" as="geometry"/>
                </mxCell>
                <mxCell id="7" value="&lt;font color=&quot;#ff0000&quot;&gt;三次握手&lt;/font&gt;建立TCP连接" style="rounded=0;whiteSpace=wrap;html=1;fillColor=none;fontColor=#000000;strokeColor=#333333;fontSize=13;" vertex="1" parent="1">
                    <mxGeometry x="340" y="67" width="70" height="40" as="geometry"/>
                </mxCell>
                <mxCell id="8" value="客户端发起请求" style="rounded=0;whiteSpace=wrap;html=1;fillColor=none;fontColor=#000000;strokeColor=#333333;fontSize=13;" vertex="1" parent="1">
                    <mxGeometry x="430" y="67" width="70" height="40" as="geometry"/>
                </mxCell>
                <mxCell id="9" value="服务器响应" style="rounded=0;whiteSpace=wrap;html=1;fillColor=none;fontColor=#000000;strokeColor=#333333;fontSize=13;" vertex="1" parent="1">
                    <mxGeometry x="540" y="67" width="90" height="40" as="geometry"/>
                </mxCell>
                <mxCell id="10" value="&lt;font color=&quot;#ff0000&quot;&gt;四次挥手&lt;/font&gt;断开TCP连接" style="rounded=0;whiteSpace=wrap;html=1;fillColor=none;fontColor=#000000;strokeColor=#333333;fontSize=13;" vertex="1" parent="1">
                    <mxGeometry x="650" y="67" width="80" height="40" as="geometry"/>
                </mxCell>
                <mxCell id="12" value="服务器" style="rounded=0;whiteSpace=wrap;html=1;fillColor=#647687;fontColor=#ffffff;strokeColor=#314354;fontSize=16;" vertex="1" parent="1">
                    <mxGeometry x="50" y="176" width="110" height="43" as="geometry"/>
                </mxCell>
                <mxCell id="13" value="" style="endArrow=classic;html=1;exitX=1;exitY=0.5;exitDx=0;exitDy=0;strokeWidth=3;strokeColor=#000000;fontSize=16;" edge="1" source="12" parent="1">
                    <mxGeometry width="50" height="50" relative="1" as="geometry">
                        <mxPoint x="460" y="337" as="sourcePoint"/>
                        <mxPoint x="800" y="197" as="targetPoint"/>
                    </mxGeometry>
                </mxCell>
                <mxCell id="17" value="" style="rounded=0;whiteSpace=wrap;html=1;fillColor=#1ba1e2;fontColor=#ffffff;strokeColor=#006EAF;fontSize=13;" vertex="1" parent="1">
                    <mxGeometry x="340" y="150" width="70" height="47" as="geometry"/>
                </mxCell>
                <mxCell id="18" value="服务器处理数据阶段" style="rounded=0;whiteSpace=wrap;html=1;fillColor=#ffff88;strokeColor=#36393d;fontColor=#000000;fontSize=13;" vertex="1" parent="1">
                    <mxGeometry x="410" y="150" width="240" height="47" as="geometry"/>
                </mxCell>
                <mxCell id="19" value="" style="rounded=0;whiteSpace=wrap;html=1;fillColor=#1ba1e2;fontColor=#ffffff;strokeColor=#006EAF;fontSize=13;" vertex="1" parent="1">
                    <mxGeometry x="650" y="150" width="70" height="47" as="geometry"/>
                </mxCell>
                <mxCell id="20" value="" style="endArrow=classic;html=1;strokeColor=#000000;strokeWidth=3;fontColor=#000000;exitX=0.25;exitY=1;exitDx=0;exitDy=0;entryX=0.155;entryY=0;entryDx=0;entryDy=0;entryPerimeter=0;fontSize=13;" edge="1" parent="1" source="8" target="18">
                    <mxGeometry width="50" height="50" relative="1" as="geometry">
                        <mxPoint x="460" y="247" as="sourcePoint"/>
                        <mxPoint x="510" y="197" as="targetPoint"/>
                    </mxGeometry>
                </mxCell>
                <mxCell id="21" value="" style="endArrow=classic;html=1;strokeColor=#000000;strokeWidth=3;fontColor=#000000;exitX=0.813;exitY=-0.025;exitDx=0;exitDy=0;exitPerimeter=0;fontSize=13;" edge="1" parent="1" source="18">
                    <mxGeometry width="50" height="50" relative="1" as="geometry">
                        <mxPoint x="475" y="117" as="sourcePoint"/>
                        <mxPoint x="605" y="107" as="targetPoint"/>
                    </mxGeometry>
                </mxCell>
            </root>
        </mxGraphModel>
    </diagram>
</mxfile>